{
  "accessors": [
    {
      "bufferView": 2,
      "componentType": 5126,
      "count": 10873,
      "max": [
        3.9886653423309326,
        0.13498763740062714,
        5.928915500640869
      ],
      "min": [
        -3.393902540206909,
        -1.3521983623504639,
        -5.68906307220459
      ],
      "type": "VEC3"
    },
    {
      "bufferView": 2,
      "byteOffset": 130476,
      "componentType": 5126,
      "count": 10873,
      "max": [
        0.9984044432640076,
        0.9787735342979431,
        0.9999954104423523
      ],
      "min": [
        -0.9984025359153748,
        -0.9999777674674988,
        -0.9995636940002441
      ],
      "type": "VEC3"
    },
    {
      "bufferView": 1,
      "componentType": 5126,
      "count": 10873,
      "max": [
        1.0116276741027832,
        0.8891808986663818
      ],
      "min": [
        -0.015516996383666992,
        0.011692047119140625
      ],
      "type": "VEC2"
    },
    {
      "bufferView": 0,
      "componentType": 5125,
      "count": 63924,
      "type": "SCALAR"
    },
    {
      "bufferView": 2,
      "byteOffset": 260952,
      "componentType": 5126,
      "count": 5413,
      "max": [
        0.23396062850952148,
        0.16333633661270142,
        0.2714272141456604
      ],
      "min": [
        -0.24051740765571594,
        -0.20851364731788635,
        -0.2772349715232849
      ],
      "type": "VEC3"
    },
    {
      "bufferView": 2,
      "byteOffset": 325908,
      "componentType": 5126,
      "count": 5413,
      "max": [
        0.9985489845275879,
        0.9999560713768005,
        0.9998801946640015
      ],
      "min": [
        -0.998146116733551,
        -0.9996965527534485,
        -0.9999330639839172
      ],
      "type": "VEC3"
    },
    {
      "bufferView": 1,
      "byteOffset": 86984,
      "componentType": 5126,
      "count": 5413,
      "max": [
        0.8439010381698608,
        0.9402934312820435
      ],
      "min": [
        0.15868628025054932,
        0.09105134010314941
      ],
      "type": "VEC2"
    },
    {
      "bufferView": 0,
      "byteOffset": 255696,
      "componentType": 5125,
      "count": 29568,
      "type": "SCALAR"
    },
    {
      "bufferView": 2,
      "byteOffset": 390864,
      "componentType": 5126,
      "count": 10277,
      "max": [
        3.983783721923828,
        1.367282748222351,
        5.8362274169921875
      ],
      "min": [
        -3.3890209197998047,
        0.13061751425266266,
        -5.688070774078369
      ],
      "type": "VEC3"
    },
    {
      "bufferView": 2,
      "byteOffset": 514188,
      "componentType": 5126,
      "count": 10277,
      "max": [
        0.9950796365737915,
        0.9999994039535522,
        0.9867449402809143
      ],
      "min": [
        -0.9950754046440125,
        -0.6010103821754456,
        -0.9983851909637451
      ],
      "type": "VEC3"
    },
    {
      "bufferView": 1,
      "byteOffset": 130288,
      "componentType": 5126,
      "count": 10277,
      "max": [
        1.0128931999206543,
        0.9952934980392456
      ],
      "min": [
        -0.012893199920654297,
        0.12488013505935669
      ],
      "type": "VEC2"
    },
    {
      "bufferView": 0,
      "byteOffset": 373968,
      "componentType": 5125,
      "count": 60348,
      "type": "SCALAR"
    }
  ],
  "asset": {
    "extras": {
      "author": "iftikhar.1998ahmad (https://sketchfab.com/iftikhar.1998ahmad)",
      "license": "CC-BY-4.0 (http://creativecommons.org/licenses/by/4.0/)",
      "source": "https://sketchfab.com/3d-models/mayonnaise-1000ml-25d337af496c42c9a421ba4131afc2b6",
      "title": "Mayonnaise 1000ml"
    },
    "generator": "Sketchfab-12.68.0",
    "version": "2.0"
  },
  "bufferViews": [
    {
      "buffer": 0,
      "byteLength": 615360,
      "name": "floatBufferViews",
      "target": 34963
    },
    {
      "buffer": 0,
      "byteLength": 212504,
      "byteOffset": 615360,
      "byteStride": 8,
      "name": "floatBufferViews",
      "target": 34962
    },
    {
      "buffer": 0,
      "byteLength": 637512,
      "byteOffset": 827864,
      "byteStride": 12,
      "name": "floatBufferViews",
      "target": 34962
    }
  ],
  "buffers": [
    {
      "byteLength": 1465376,
      "uri": "scene.bin"
    }
  ],
  "extensionsUsed": [
    "KHR_materials_unlit"
  ],
  "images": [
    {
      "uri": "textures/PM3D_Cube005_Retopo_mtl_baseColor.jpeg"
    },
    {
      "uri": "textures/PM3D_Cylin001_Retopo_mtl_baseColor.jpeg"
    },
    {
      "uri": "textures/PM3D_Cube005_Retopo001_mtl_baseColor.jpeg"
    }
  ],
  "materials": [
    {
      "doubleSided": true,
      "extensions": {
        "KHR_materials_unlit": {}
      },
      "name": "PM3D_Cube005_Retopo_mtl",
      "pbrMetallicRoughness": {
        "baseColorTexture": {
          "index": 0
        },
        "metallicFactor": 0.0
      }
    },
    {
      "doubleSided": true,
      "extensions": {
        "KHR_materials_unlit": {}
      },
      "name": "PM3D_Cylin001_Retopo_mtl",
      "pbrMetallicRoughness": {
        "baseColorTexture": {
          "index": 1
        },
        "metallicFactor": 0.0
      }
    },
    {
      "doubleSided": true,
      "extensions": {
        "KHR_materials_unlit": {}
      },
      "name": "PM3D_Cube005_Retopo001_mtl",
      "pbrMetallicRoughness": {
        "baseColorTexture": {
          "index": 2
        },
        "metallicFactor": 0.0
      }
    }
  ],
  "meshes": [
    {
      "name": "PM3D_Cube005_Retopo_PM3D_Cube005_Retopo_mtl_0",
      "primitives": [
        {
          "attributes": {
            "NORMAL": 1,
            "POSITION": 0,
            "TEXCOORD_0": 2
          },
          "indices": 3,
          "material": 0,
          "mode": 4
        }
      ]
    },
    {
      "name": "PM3D_Cylin001_Retopo_PM3D_Cylin001_Retopo_mtl_0",
      "primitives": [
        {
          "attributes": {
            "NORMAL": 5,
            "POSITION": 4,
            "TEXCOORD_0": 6
          },
          "indices": 7,
          "material": 1,
          "mode": 4
        }
      ]
    },
    {
      "name": "PM3D_Cube005_Retopo001_PM3D_Cube005_Retopo001_mtl_0",
      "primitives": [
        {
          "attributes": {
            "NORMAL": 9,
            "POSITION": 8,
            "TEXCOORD_0": 10
          },
          "indices": 11,
          "material": 2,
          "mode": 4
        }
      ]
    }
  ],
  "nodes": [
    {
      "children": [
        1
      ],
      "matrix": [
        1.0,
        0.0,
        0.0,
        0.0,
        0.0,
        2.220446049250313e-16,
        -1.0,
        0.0,
        0.0,
        1.0,
        2.220446049250313e-16,
        0.0,
        0.0,
        0.0,
        0.0,
        1.0
      ],
      "name": "Sketchfab_model"
    },
    {
      "children": [
        2
      ],
      "matrix": [
        1.0,
        0.0,
        0.0,
        0.0,
        0.0,
        0.0,
        1.0,
        0.0,
        0.0,
        -1.0,
        0.0,
        0.0,
        0.0,
        0.0,
        0.0,
        1.0
      ],
      "name": "Mayonnaise 1000ml.fbx"
    },
    {
      "children": [
        3,
        5,
        7
      ],
      "name": "RootNode"
    },
    {
      "children": [
        4
      ],
      "matrix": [
        -0.9999999999999885,
        1.2246469849340659e-16,
        -1.5099580265055075e-07,
        0.0,
        1.5099580265054902e-07,
        1.5099580286115355e-07,
        -0.9999999999999771,
        0.0,
        2.267726774562492e-14,
        -0.9999999999999885,
        -1.5099580275013125e-07,
        0.0,
        -0.342837393283844,
        5.485856056213379,
        0.004642637912184,
        1.0
      ],
      "name": "PM3D_Cube005_Retopo"
    },
    {
      "mesh": 0,
      "name": "PM3D_Cube005_Retopo_PM3D_Cube005_Retopo_mtl_0"
    },
    {
      "children": [
        6
      ],
      "matrix": [
        0.9979204903416481,
        0.006915991036453833,
        -0.0640848189844397,
        0.0,
        -0.06438125145547144,
        0.05878540641771657,
        -0.9961924163801545,
        0.0,
        -0.0031224056930623557,
        0.9982466854742307,
        0.059108421755282525,
        0.0,
        -0.640218198299408,
        11.20350170135498,
        -0.12851649522781372,
        1.0
      ],
      "name": "PM3D_Cylin001_Retopo"
    },
    {
      "mesh": 1,
      "name": "PM3D_Cylin001_Retopo_PM3D_Cylin001_Retopo_mtl_0"
    },
    {
      "children": [
        8
      ],
      "matrix": [
        -0.9999999999999885,
        1.2246469849340659e-16,
        -1.5099580265055075e-07,
        0.0,
        1.5099580265054902e-07,
        1.5099580286115355e-07,
        -0.9999999999999771,
        0.0,
        2.267726774562492e-14,
        -0.9999999999999885,
        -1.5099580275013125e-07,
        0.0,
        -0.342837393283844,
        5.485856056213379,
        0.004642637912184,
        1.0
      ],
      "name": "PM3D_Cube005_Retopo001"
    },
    {
      "mesh": 2,
      "name": "PM3D_Cube005_Retopo001_PM3D_Cube005_Retopo001_mtl_0"
    }
  ],
  "samplers": [
    {
      "magFilter": 9729,
      "minFilter": 9987,
      "wrapS": 10497,
      "wrapT": 10497
    }
  ],
  "scene": 0,
  "scenes": [
    {
      "name": "Sketchfab_Scene",
      "nodes": [
        0
      ]
    }
  ],
  "textures": [
    {
      "sampler": 0,
      "source": 0
    },
    {
      "sampler": 0,
      "source": 1
    },
    {
      "sampler": 0,
      "source": 2
    }
  ]
}
