{
  "accessors": [
    {
      "bufferView": 2,
      "componentType": 5126,
      "count": 9824,
      "max": [
        4.78095006942749,
        4.78095006942749,
        0.002839999971911311
      ],
      "min": [
        -4.78095006942749,
        -4.78095006942749,
        -1.0359699726104736
      ],
      "type": "VEC3"
    },
    {
      "bufferView": 2,
      "byteOffset": 117888,
      "componentType": 5126,
      "count": 9824,
      "max": [
        0.9679349660873413,
        0.9679422378540039,
        1.0
      ],
      "min": [
        -0.9679349660873413,
        -0.9679349660873413,
        -1.0
      ],
      "type": "VEC3"
    },
    {
      "bufferView": 1,
      "componentType": 5126,
      "count": 9824,
      "max": [
        1.0,
        1.0
      ],
      "min": [
        0.0,
        0.0
      ],
      "type": "VEC2"
    },
    {
      "bufferView": 0,
      "componentType": 5125,
      "count": 56832,
      "type": "SCALAR"
    }
  ],
  "asset": {
    "extras": {
      "author": "Polygenerator (https://sketchfab.com/Polygenerator)",
      "license": "CC-BY-4.0 (http://creativecommons.org/licenses/by/4.0/)",
      "source": "https://sketchfab.com/3d-models/bowl-13339ceb5ddc44aaa8b69b7cee51d9c3",
      "title": "Bowl"
    },
    "generator": "Sketchfab-12.68.0",
    "version": "2.0"
  },
  "bufferViews": [
    {
      "buffer": 0,
      "byteLength": 227328,
      "name": "floatBufferViews",
      "target": 34963
    },
    {
      "buffer": 0,
      "byteLength": 78592,
      "byteOffset": 227328,
      "byteStride": 8,
      "name": "floatBufferViews",
      "target": 34962
    },
    {
      "buffer": 0,
      "byteLength": 235776,
      "byteOffset": 305920,
      "byteStride": 12,
      "name": "floatBufferViews",
      "target": 34962
    }
  ],
  "buffers": [
    {
      "byteLength": 541696,
      "uri": "scene.bin"
    }
  ],
  "extensionsRequired": [
    "KHR_materials_pbrSpecularGlossiness"
  ],
  "extensionsUsed": [
    "KHR_materials_pbrSpecularGlossiness"
  ],
  "materials": [
    {
      "doubleSided": true,
      "extensions": {
        "KHR_materials_pbrSpecularGlossiness": {
          "diffuseFactor": [
            0.2986093712,
            0.0038447375,
            0.0038447375,
            1.0
          ],
          "glossinessFactor": 0.92,
          "specularFactor": [
            0.0138257576,
            0.0138257576,
            0.0138257576
          ]
        }
      },
      "name": "Material.001"
    }
  ],
  "meshes": [
    {
      "name": "Cylinder_0",
      "primitives": [
        {
          "attributes": {
            "NORMAL": 1,
            "POSITION": 0,
            "TEXCOORD_0": 2
          },
          "indices": 3,
          "material": 0,
          "mode": 4
        }
      ]
    }
  ],
  "nodes": [
    {
      "children": [
        1
      ],
      "matrix": [
        1.0,
        0.0,
        0.0,
        0.0,
        0.0,
        2.220446049250313e-16,
        -1.0,
        0.0,
        0.0,
        1.0,
        2.220446049250313e-16,
        0.0,
        0.0,
        0.0,
        0.0,
        1.0
      ],
      "name": "Sketchfab_model"
    },
    {
      "children": [
        2,
        4
      ],
      "name": "Root"
    },
    {
      "children": [
        3
      ],
      "matrix": [
        1.0,
        0.0,
        0.0,
        0.0,
        0.0,
        1.0,
        0.0,
        0.0,
        0.0,
        0.0,
        3.0,
        0.0,
        0.0,
        4.645809999999999,
        3.11788,
        1.0
      ],
      "name": "Cylinder"
    },
    {
      "mesh": 0,
      "name": "Cylinder_0"
    },
    {
      "children": [
        5
      ],
      "matrix": [
        0.93236,
        0.13940000000000002,
        0.33359000000000005,
        0.0,
        -0.04234000000000001,
        0.95843,
        -0.28217000000000003,
        0.0,
        -0.35905000000000004,
        0.24896000000000004,
        0.8995000000000001,
        0.0,
        0.0,
        0.0,
        9.59749,
        1.0
      ],
      "name": "Sun"
    },
    {
      "name": "Sun"
    }
  ],
  "scene": 0,
  "scenes": [
    {
      "name": "Sketchfab_Scene",
      "nodes": [
        0
      ]
    }
  ]
}
