{
  "accessors": [
    {
      "bufferView": 2,
      "componentType": 5126,
      "count": 9974,
      "max": [
        44.81449890136719,
        300.3389892578125,
        57.672698974609375
      ],
      "min": [
        6.277780055999756,
        264.718994140625,
        9.396039962768555
      ],
      "type": "VEC3"
    },
    {
      "bufferView": 2,
      "byteOffset": 119688,
      "componentType": 5126,
      "count": 9974,
      "max": [
        0.9997990131378174,
        0.9976760149002075,
        0.9999620914459229
      ],
      "min": [
        -0.9999517798423767,
        -0.9997947812080383,
        -0.9994296431541443
      ],
      "type": "VEC3"
    },
    {
      "bufferView": 1,
      "componentType": 5126,
      "count": 9974,
      "max": [
        0.7655820250511169,
        0.9706889986991882
      ],
      "min": [
        0.2244269996881485,
        0.06292600184679031
      ],
      "type": "VEC2"
    },
    {
      "bufferView": 0,
      "componentType": 5125,
      "count": 50016,
      "type": "SCALAR"
    },
    {
      "bufferView": 2,
      "byteOffset": 239376,
      "componentType": 5126,
      "count": 9846,
      "max": [
        42.00920104980469,
        305.9549865722656,
        56.56039810180664
      ],
      "min": [
        -1.4210900454981155e-14,
        267.760986328125,
        9.68379020690918
      ],
      "type": "VEC3"
    },
    {
      "bufferView": 2,
      "byteOffset": 357528,
      "componentType": 5126,
      "count": 9846,
      "max": [
        0.999933123588562,
        0.9990028738975525,
        0.9999432563781738
      ],
      "min": [
        -0.9987557530403137,
        -0.999546229839325,
        -0.9996131062507629
      ],
      "type": "VEC3"
    },
    {
      "bufferView": 1,
      "byteOffset": 79792,
      "componentType": 5126,
      "count": 9846,
      "max": [
        0.7655820250511169,
        0.9706889986991882
      ],
      "min": [
        0.2244269996881485,
        0.06292600184679031
      ],
      "type": "VEC2"
    },
    {
      "bufferView": 0,
      "byteOffset": 200064,
      "componentType": 5125,
      "count": 49170,
      "type": "SCALAR"
    },
    {
      "bufferView": 2,
      "byteOffset": 475680,
      "componentType": 5126,
      "count": 6077,
      "max": [
        39.900001525878906,
        303.7969970703125,
        56.42679977416992
      ],
      "min": [
        3.6289000511169434,
        265.885009765625,
        10.722299575805664
      ],
      "type": "VEC3"
    },
    {
      "bufferView": 2,
      "byteOffset": 548604,
      "componentType": 5126,
      "count": 6077,
      "max": [
        0.9993618726730347,
        0.9999707341194153,
        0.999974250793457
      ],
      "min": [
        -0.9994999766349792,
        -0.9995705485343933,
        -0.9997246265411377
      ],
      "type": "VEC3"
    },
    {
      "bufferView": 1,
      "byteOffset": 158560,
      "componentType": 5126,
      "count": 6077,
      "max": [
        0.7655820250511169,
        0.9706889986991882
      ],
      "min": [
        -0.16610600054264069,
        0.06292600184679031
      ],
      "type": "VEC2"
    },
    {
      "bufferView": 0,
      "byteOffset": 396744,
      "componentType": 5125,
      "count": 30984,
      "type": "SCALAR"
    }
  ],
  "asset": {
    "extras": {
      "author": "fakefurfetishferre (https://sketchfab.com/fakefurfetishferre)",
      "license": "CC-BY-4.0 (http://creativecommons.org/licenses/by/4.0/)",
      "source": "https://sketchfab.com/3d-models/basil-24eb04654284458e9668b49a706ee16e",
      "title": "Basil"
    },
    "generator": "Sketchfab-12.66.0",
    "version": "2.0"
  },
  "bufferViews": [
    {
      "buffer": 0,
      "byteLength": 520680,
      "name": "floatBufferViews",
      "target": 34963
    },
    {
      "buffer": 0,
      "byteLength": 207176,
      "byteOffset": 520680,
      "byteStride": 8,
      "name": "floatBufferViews",
      "target": 34962
    },
    {
      "buffer": 0,
      "byteLength": 621528,
      "byteOffset": 727856,
      "byteStride": 12,
      "name": "floatBufferViews",
      "target": 34962
    }
  ],
  "buffers": [
    {
      "byteLength": 1349384,
      "uri": "scene.bin"
    }
  ],
  "images": [
    {
      "uri": "textures/Texture_1_jpeg_baseColor.jpeg"
    }
  ],
  "materials": [
    {
      "doubleSided": true,
      "name": "Texture_1_jpeg",
      "pbrMetallicRoughness": {
        "baseColorTexture": {
          "index": 0
        },
        "metallicFactor": 0.0
      }
    }
  ],
  "meshes": [
    {
      "name": "Object_0",
      "primitives": [
        {
          "attributes": {
            "NORMAL": 1,
            "POSITION": 0,
            "TEXCOORD_0": 2
          },
          "indices": 3,
          "material": 0,
          "mode": 4
        }
      ]
    },
    {
      "name": "Object_1",
      "primitives": [
        {
          "attributes": {
            "NORMAL": 5,
            "POSITION": 4,
            "TEXCOORD_0": 6
          },
          "indices": 7,
          "material": 0,
          "mode": 4
        }
      ]
    },
    {
      "name": "Object_2",
      "primitives": [
        {
          "attributes": {
            "NORMAL": 9,
            "POSITION": 8,
            "TEXCOORD_0": 10
          },
          "indices": 11,
          "material": 0,
          "mode": 4
        }
      ]
    }
  ],
  "nodes": [
    {
      "children": [
        1
      ],
      "matrix": [
        1.0,
        0.0,
        0.0,
        0.0,
        0.0,
        2.220446049250313e-16,
        -1.0,
        0.0,
        0.0,
        1.0,
        2.220446049250313e-16,
        0.0,
        0.0,
        0.0,
        0.0,
        1.0
      ],
      "name": "Sketchfab_model"
    },
    {
      "children": [
        2,
        3,
        4
      ],
      "name": "basil.obj.cleaner.materialmerger.gles"
    },
    {
      "mesh": 0,
      "name": "Object_2"
    },
    {
      "mesh": 1,
      "name": "Object_3"
    },
    {
      "mesh": 2,
      "name": "Object_4"
    }
  ],
  "samplers": [
    {
      "magFilter": 9729,
      "minFilter": 9987,
      "wrapS": 10497,
      "wrapT": 10497
    }
  ],
  "scene": 0,
  "scenes": [
    {
      "name": "Sketchfab_Scene",
      "nodes": [
        0
      ]
    }
  ],
  "textures": [
    {
      "sampler": 0,
      "source": 0
    }
  ]
}
