{
  "accessors": [
    {
      "bufferView": 2,
      "componentType": 5126,
      "count": 3096,
      "max": [
        0.44538599252700806,
        11.05207633972168,
        1.4270130395889282
      ],
      "min": [
        -0.09749399870634079,
        -10.890334129333496,
        -1.2309540510177612
      ],
      "type": "VEC3"
    },
    {
      "bufferView": 2,
      "byteOffset": 37152,
      "componentType": 5126,
      "count": 3096,
      "max": [
        1.0,
        0.997738778591156,
        1.0
      ],
      "min": [
        -0.9999973773956299,
        -0.999637246131897,
        -1.0
      ],
      "type": "VEC3"
    },
    {
      "bufferView": 3,
      "componentType": 5126,
      "count": 3096,
      "max": [
        0.5335076451301575,
        1.0,
        0.9588662385940552,
        1.0
      ],
      "min": [
        -0.9999162554740906,
        -0.9999971985816956,
        -0.9999991059303284,
        1.0
      ],
      "type": "VEC4"
    },
    {
      "bufferView": 1,
      "componentType": 5126,
      "count": 3096,
      "max": [
        0.9985100030899048,
        0.9983329772949219
      ],
      "min": [
        0.003484999993816018,
        0.008456000126898289
      ],
      "type": "VEC2"
    },
    {
      "bufferView": 0,
      "componentType": 5125,
      "count": 15936,
      "type": "SCALAR"
    }
  ],
  "asset": {
    "extras": {
      "author": "angelaf (https://sketchfab.com/angelaf)",
      "license": "CC-BY-4.0 (http://creativecommons.org/licenses/by/4.0/)",
      "source": "https://sketchfab.com/3d-models/butter-knife-1bd78405d3f14a22aaa6b82d8ee1ab26",
      "title": "butter knife"
    },
    "generator": "Sketchfab-15.42.0",
    "version": "2.0"
  },
  "bufferViews": [
    {
      "buffer": 0,
      "byteLength": 63744,
      "name": "floatBufferViews",
      "target": 34963
    },
    {
      "buffer": 0,
      "byteLength": 24768,
      "byteOffset": 63744,
      "byteStride": 8,
      "name": "floatBufferViews",
      "target": 34962
    },
    {
      "buffer": 0,
      "byteLength": 74304,
      "byteOffset": 88512,
      "byteStride": 12,
      "name": "floatBufferViews",
      "target": 34962
    },
    {
      "buffer": 0,
      "byteLength": 49536,
      "byteOffset": 162816,
      "byteStride": 16,
      "name": "floatBufferViews",
      "target": 34962
    }
  ],
  "buffers": [
    {
      "byteLength": 212352,
      "uri": "scene.bin"
    }
  ],
  "images": [
    {
      "uri": "textures/Metal_Aluminium_001_baseColor.jpeg"
    },
    {
      "uri": "textures/Metal_Aluminium_001_metallicRoughness.png"
    },
    {
      "uri": "textures/Metal_Aluminium_001_normal.png"
    }
  ],
  "materials": [
    {
      "doubleSided": true,
      "name": "Metal_Aluminium_001",
      "normalTexture": {
        "index": 2
      },
      "occlusionTexture": {
        "index": 1
      },
      "pbrMetallicRoughness": {
        "baseColorTexture": {
          "index": 0
        },
        "metallicRoughnessTexture": {
          "index": 1
        }
      }
    }
  ],
  "meshes": [
    {
      "name": "defaultMaterial",
      "primitives": [
        {
          "attributes": {
            "NORMAL": 1,
            "POSITION": 0,
            "TANGENT": 2,
            "TEXCOORD_0": 3
          },
          "indices": 4,
          "material": 0,
          "mode": 4
        }
      ]
    }
  ],
  "nodes": [
    {
      "children": [
        1
      ],
      "matrix": [
        2.220446049250313e-16,
        -3.828568672208042e-16,
        1.0,
        0.0,
        1.0,
        1.6081226229577296e-16,
        -2.2204460492503128e-16,
        0.0,
        -1.6081226229577292e-16,
        1.0,
        3.828568672208042e-16,
        0.0,
        0.0,
        0.0,
        0.0,
        1.0
      ],
      "name": "Sketchfab_model"
    },
    {
      "children": [
        2
      ],
      "matrix": [
        1.0,
        0.0,
        0.0,
        0.0,
        0.0,
        -4.371139006309477e-08,
        0.999999999999999,
        0.0,
        0.0,
        -0.999999999999999,
        -4.371139006309477e-08,
        0.0,
        0.0,
        0.0,
        0.0,
        1.0
      ],
      "name": "Collada visual scene group"
    },
    {
      "children": [
        3
      ],
      "matrix": [
        1.0,
        0.0,
        0.0,
        0.0,
        0.0,
        1.0,
        0.0,
        0.0,
        0.0,
        0.0,
        1.0,
        0.0,
        0.0,
        4.523716,
        0.0,
        1.0
      ],
      "name": "knife"
    },
    {
      "mesh": 0,
      "name": "defaultMaterial"
    }
  ],
  "samplers": [
    {
      "magFilter": 9729,
      "minFilter": 9987,
      "wrapS": 10497,
      "wrapT": 10497
    }
  ],
  "scene": 0,
  "scenes": [
    {
      "name": "Sketchfab_Scene",
      "nodes": [
        0
      ]
    }
  ],
  "textures": [
    {
      "sampler": 0,
      "source": 0
    },
    {
      "sampler": 0,
      "source": 1
    },
    {
      "sampler": 0,
      "source": 2
    }
  ]
}
