{
  "accessors": [
    {
      "bufferView": 2,
      "componentType": 5126,
      "count": 19870,
      "max": [
        0.06629099696874619,
        0.024436000734567642,
        0.03791600093245506
      ],
      "min": [
        -0.07850199937820435,
        0.0028210000600665808,
        -0.0502530001103878
      ],
      "type": "VEC3"
    },
    {
      "bufferView": 2,
      "byteOffset": 238440,
      "componentType": 5126,
      "count": 19870,
      "max": [
        0.9993485808372498,
        0.999998927116394,
        0.9999937415122986
      ],
      "min": [
        -0.9999486207962036,
        -0.9999975562095642,
        -0.9997750520706177
      ],
      "type": "VEC3"
    },
    {
      "bufferView": 3,
      "componentType": 5126,
      "count": 19870,
      "max": [
        0.999789297580719,
        0.9999271035194397,
        0.9999881386756897,
        1.0
      ],
      "min": [
        -0.9999474883079529,
        -0.9999727010726929,
        -0.9999924898147583,
        -1.0
      ],
      "type": "VEC4"
    },
    {
      "bufferView": 1,
      "componentType": 5126,
      "count": 19870,
      "max": [
        0.9948819875717163,
        0.9999600052833557
      ],
      "min": [
        1.9999999949504854e-06,
        7.999999979801942e-06
      ],
      "type": "VEC2"
    },
    {
      "bufferView": 0,
      "componentType": 5125,
      "count": 59997,
      "type": "SCALAR"
    }
  ],
  "asset": {
    "extras": {
      "author": "Smallpoly (https://sketchfab.com/smallpoly)",
      "license": "CC-BY-4.0 (http://creativecommons.org/licenses/by/4.0/)",
      "source": "https://sketchfab.com/3d-models/sliced-bread-5e8f3d6175d24aab97266f0cad5f1b7f",
      "title": "Sliced Bread"
    },
    "generator": "Sketchfab-12.68.0",
    "version": "2.0"
  },
  "bufferViews": [
    {
      "buffer": 0,
      "byteLength": 239988,
      "name": "floatBufferViews",
      "target": 34963
    },
    {
      "buffer": 0,
      "byteLength": 158960,
      "byteOffset": 239988,
      "byteStride": 8,
      "name": "floatBufferViews",
      "target": 34962
    },
    {
      "buffer": 0,
      "byteLength": 476880,
      "byteOffset": 398948,
      "byteStride": 12,
      "name": "floatBufferViews",
      "target": 34962
    },
    {
      "buffer": 0,
      "byteLength": 317920,
      "byteOffset": 875828,
      "byteStride": 16,
      "name": "floatBufferViews",
      "target": 34962
    }
  ],
  "buffers": [
    {
      "byteLength": 1193748,
      "uri": "scene.bin"
    }
  ],
  "images": [
    {
      "uri": "textures/bread_20k_baseColor.png"
    },
    {
      "uri": "textures/bread_20k_metallicRoughness.png"
    },
    {
      "uri": "textures/bread_20k_normal.png"
    }
  ],
  "materials": [
    {
      "doubleSided": true,
      "name": "bread_20k",
      "normalTexture": {
        "index": 2
      },
      "occlusionTexture": {
        "index": 1,
        "strength": 0.37366615853658536
      },
      "pbrMetallicRoughness": {
        "baseColorTexture": {
          "index": 0
        },
        "metallicRoughnessTexture": {
          "index": 1
        }
      }
    }
  ],
  "meshes": [
    {
      "name": "Object_0",
      "primitives": [
        {
          "attributes": {
            "NORMAL": 1,
            "POSITION": 0,
            "TANGENT": 2,
            "TEXCOORD_0": 3
          },
          "indices": 4,
          "material": 0,
          "mode": 4
        }
      ]
    }
  ],
  "nodes": [
    {
      "children": [
        1
      ],
      "matrix": [
        1.0,
        0.0,
        0.0,
        0.0,
        0.0,
        1.0,
        0.0,
        0.0,
        0.0,
        0.0,
        1.0,
        0.0,
        0.0,
        -0.0197969488799572,
        -0.0074600651860237165,
        1.0
      ],
      "name": "Sketchfab_model"
    },
    {
      "children": [
        2
      ],
      "name": "bread_20k.obj.cleaner.materialmerger.gles"
    },
    {
      "mesh": 0,
      "name": "Object_2"
    }
  ],
  "samplers": [
    {
      "magFilter": 9729,
      "minFilter": 9987,
      "wrapS": 10497,
      "wrapT": 10497
    }
  ],
  "scene": 0,
  "scenes": [
    {
      "name": "Sketchfab_Scene",
      "nodes": [
        0
      ]
    }
  ],
  "textures": [
    {
      "sampler": 0,
      "source": 0
    },
    {
      "sampler": 0,
      "source": 1
    },
    {
      "sampler": 0,
      "source": 2
    }
  ]
}
