{
  "accessors": [
    {
      "bufferView": 2,
      "componentType": 5126,
      "count": 510,
      "max": [
        0.3863718509674072,
        0.24711303412914276,
        0.03124256618320942
      ],
      "min": [
        -0.3863718509674072,
        -0.24711303412914276,
        -0.03124256618320942
      ],
      "type": "VEC3"
    },
    {
      "bufferView": 2,
      "byteOffset": 6120,
      "componentType": 5126,
      "count": 510,
      "max": [
        1.0,
        1.0,
        0.9997928142547607
      ],
      "min": [
        -0.980444073677063,
        -1.0,
        -0.9997928142547607
      ],
      "type": "VEC3"
    },
    {
      "bufferView": 3,
      "componentType": 5126,
      "count": 510,
      "max": [
        0.9999398589134216,
        1.0,
        1.0,
        1.0
      ],
      "min": [
        -0.9999256134033203,
        -0.9967676997184753,
        -0.4342783987522125,
        -1.0
      ],
      "type": "VEC4"
    },
    {
      "bufferView": 1,
      "componentType": 5126,
      "count": 510,
      "max": [
        1.0,
        1.0
      ],
      "min": [
        0.0,
        0.0
      ],
      "type": "VEC2"
    },
    {
      "bufferView": 1,
      "byteOffset": 4080,
      "componentType": 5126,
      "count": 510,
      "max": [
        1.0,
        1.0
      ],
      "min": [
        0.0,
        0.0
      ],
      "type": "VEC2"
    },
    {
      "bufferView": 1,
      "byteOffset": 8160,
      "componentType": 5126,
      "count": 510,
      "max": [
        1.0,
        1.0
      ],
      "min": [
        0.0,
        0.0
      ],
      "type": "VEC2"
    },
    {
      "bufferView": 0,
      "componentType": 5125,
      "count": 1884,
      "type": "SCALAR"
    }
  ],
  "asset": {
    "extras": {
      "author": "Dominic Baker (https://sketchfab.com/Domuk)",
      "license": "CC-BY-4.0 (http://creativecommons.org/licenses/by/4.0/)",
      "source": "https://sketchfab.com/3d-models/chopping-board-02efecfecf81437f865520de7ccfa714",
      "title": "Chopping Board"
    },
    "generator": "Sketchfab-14.83.0",
    "version": "2.0"
  },
  "bufferViews": [
    {
      "buffer": 0,
      "byteLength": 7536,
      "name": "floatBufferViews",
      "target": 34963
    },
    {
      "buffer": 0,
      "byteLength": 12240,
      "byteOffset": 7536,
      "byteStride": 8,
      "name": "floatBufferViews",
      "target": 34962
    },
    {
      "buffer": 0,
      "byteLength": 12240,
      "byteOffset": 19776,
      "byteStride": 12,
      "name": "floatBufferViews",
      "target": 34962
    },
    {
      "buffer": 0,
      "byteLength": 8160,
      "byteOffset": 32016,
      "byteStride": 16,
      "name": "floatBufferViews",
      "target": 34962
    }
  ],
  "buffers": [
    {
      "byteLength": 40176,
      "uri": "scene.bin"
    }
  ],
  "images": [
    {
      "uri": "textures/floor_baseColor.jpeg"
    },
    {
      "uri": "textures/floor_metallicRoughness.png"
    },
    {
      "uri": "textures/floor_normal.png"
    }
  ],
  "materials": [
    {
      "doubleSided": true,
      "name": "floor",
      "normalTexture": {
        "index": 2
      },
      "pbrMetallicRoughness": {
        "baseColorTexture": {
          "index": 0
        },
        "metallicFactor": 0.0,
        "metallicRoughnessTexture": {
          "index": 1
        }
      }
    }
  ],
  "meshes": [
    {
      "name": "choppingBoard_floor_0",
      "primitives": [
        {
          "attributes": {
            "NORMAL": 1,
            "POSITION": 0,
            "TANGENT": 2,
            "TEXCOORD_0": 3,
            "TEXCOORD_1": 4,
            "TEXCOORD_2": 5
          },
          "indices": 6,
          "material": 0,
          "mode": 4
        }
      ]
    }
  ],
  "nodes": [
    {
      "children": [
        1
      ],
      "matrix": [
        1.0,
        0.0,
        0.0,
        0.0,
        0.0,
        2.220446049250313e-16,
        -1.0,
        0.0,
        0.0,
        1.0,
        2.220446049250313e-16,
        0.0,
        0.0,
        0.0,
        0.0,
        1.0
      ],
      "name": "Sketchfab_model"
    },
    {
      "children": [
        2
      ],
      "matrix": [
        0.009999999776482582,
        0.0,
        0.0,
        0.0,
        0.0,
        0.0,
        0.009999999776482582,
        0.0,
        0.0,
        -0.009999999776482582,
        0.0,
        0.0,
        0.0,
        0.0,
        0.0,
        1.0
      ],
      "name": "ae50ebec30754218954c2b427d871fb9.fbx"
    },
    {
      "children": [
        3
      ],
      "name": "RootNode"
    },
    {
      "children": [
        4
      ],
      "matrix": [
        100.0,
        0.0,
        0.0,
        0.0,
        0.0,
        -1.629206793918314e-05,
        -99.99999999999868,
        0.0,
        0.0,
        99.99999999999868,
        -1.629206793918314e-05,
        0.0,
        0.0,
        0.0,
        0.0,
        1.0
      ],
      "name": "choppingBoard"
    },
    {
      "mesh": 0,
      "name": "choppingBoard_floor_0"
    }
  ],
  "samplers": [
    {
      "magFilter": 9729,
      "minFilter": 9987,
      "wrapS": 10497,
      "wrapT": 10497
    }
  ],
  "scene": 0,
  "scenes": [
    {
      "name": "Sketchfab_Scene",
      "nodes": [
        0
      ]
    }
  ],
  "textures": [
    {
      "sampler": 0,
      "source": 0
    },
    {
      "sampler": 0,
      "source": 1
    },
    {
      "sampler": 0,
      "source": 2
    }
  ]
}
