{
  "accessors": [
    {
      "bufferView": 2,
      "componentType": 5126,
      "count": 13775,
      "max": [
        116.05604553222656,
        123.5413818359375,
        78.73248291015625
      ],
      "min": [
        0.0,
        0.0,
        0.0
      ],
      "type": "VEC3"
    },
    {
      "bufferView": 2,
      "byteOffset": 165300,
      "componentType": 5126,
      "count": 13775,
      "max": [
        0.9999554753303528,
        0.9999607801437378,
        0.9999813437461853
      ],
      "min": [
        -0.9998173713684082,
        -0.9998687505722046,
        -1.0
      ],
      "type": "VEC3"
    },
    {
      "bufferView": 3,
      "componentType": 5126,
      "count": 13775,
      "max": [
        0.999993085861206,
        0.9999982118606567,
        0.9801350235939026,
        1.0
      ],
      "min": [
        -0.9999035000801086,
        -0.9997021555900574,
        -0.999595582485199,
        1.0
      ],
      "type": "VEC4"
    },
    {
      "bufferView": 1,
      "componentType": 5126,
      "count": 13775,
      "max": [
        0.9980400204658508,
        0.7908499836921692
      ],
      "min": [
        0.0019499999471008778,
        0.0019499999471008778
      ],
      "type": "VEC2"
    },
    {
      "bufferView": 0,
      "componentType": 5125,
      "count": 81816,
      "type": "SCALAR"
    }
  ],
  "asset": {
    "extras": {
      "author": "randomium235 (https://sketchfab.com/randomium235)",
      "license": "CC-BY-4.0 (http://creativecommons.org/licenses/by/4.0/)",
      "source": "https://sketchfab.com/3d-models/mayo-f3b0fb72aa8e49df85e6bf7a1173253c",
      "title": "Mayo"
    },
    "generator": "Sketchfab-12.66.0",
    "version": "2.0"
  },
  "bufferViews": [
    {
      "buffer": 0,
      "byteLength": 327264,
      "name": "floatBufferViews",
      "target": 34963
    },
    {
      "buffer": 0,
      "byteLength": 110200,
      "byteOffset": 327264,
      "byteStride": 8,
      "name": "floatBufferViews",
      "target": 34962
    },
    {
      "buffer": 0,
      "byteLength": 330600,
      "byteOffset": 437464,
      "byteStride": 12,
      "name": "floatBufferViews",
      "target": 34962
    },
    {
      "buffer": 0,
      "byteLength": 220400,
      "byteOffset": 768064,
      "byteStride": 16,
      "name": "floatBufferViews",
      "target": 34962
    }
  ],
  "buffers": [
    {
      "byteLength": 988464,
      "uri": "scene.bin"
    }
  ],
  "images": [
    {
      "uri": "textures/Scene_-_Root_baseColor.jpeg"
    },
    {
      "uri": "textures/Scene_-_Root_metallicRoughness.png"
    },
    {
      "uri": "textures/Scene_-_Root_normal.png"
    }
  ],
  "materials": [
    {
      "name": "Scene_-_Root",
      "normalTexture": {
        "index": 2
      },
      "occlusionTexture": {
        "index": 1
      },
      "pbrMetallicRoughness": {
        "baseColorTexture": {
          "index": 0
        },
        "metallicRoughnessTexture": {
          "index": 1
        }
      }
    }
  ],
  "meshes": [
    {
      "name": "Object_0",
      "primitives": [
        {
          "attributes": {
            "NORMAL": 1,
            "POSITION": 0,
            "TANGENT": 2,
            "TEXCOORD_0": 3
          },
          "indices": 4,
          "material": 0,
          "mode": 4
        }
      ]
    }
  ],
  "nodes": [
    {
      "children": [
        1
      ],
      "matrix": [
        1.5449513896521618e-18,
        -3.515947683306421e-18,
        0.006957842502743006,
        0.0,
        0.006957842502743006,
        -1.5449513896521614e-18,
        -1.5449513896521622e-18,
        0.0,
        1.5449513896521618e-18,
        0.006957842502743006,
        3.515947683306421e-18,
        0.0,
        323.579345703125,
        -2.8919116992591476e-13,
        630.4012451171875,
        1.0
      ],
      "name": "Sketchfab_model"
    },
    {
      "children": [
        2
      ],
      "matrix": [
        1.0,
        0.0,
        0.0,
        0.0,
        0.0,
        1.0,
        0.0,
        0.0,
        0.0,
        0.0,
        1.0,
        0.0,
        -211.4388885498047,
        -538.7608642578125,
        2.819179058074951,
        1.0
      ],
      "name": "Line155.OBJ.cleaner.materialmerger.gles"
    },
    {
      "children": [
        3
      ],
      "name": "Object_2"
    },
    {
      "mesh": 0,
      "name": "Object_3"
    }
  ],
  "samplers": [
    {
      "magFilter": 9729,
      "minFilter": 9987,
      "wrapS": 10497,
      "wrapT": 10497
    }
  ],
  "scene": 0,
  "scenes": [
    {
      "name": "Sketchfab_Scene",
      "nodes": [
        0
      ]
    }
  ],
  "textures": [
    {
      "sampler": 0,
      "source": 0
    },
    {
      "sampler": 0,
      "source": 1
    },
    {
      "sampler": 0,
      "source": 2
    }
  ]
}
